<?xml version="1.0" encoding="UTF-8" standalone="no"?>
<!-- Created with Inkscape (http://www.inkscape.org/) -->

<svg
   width="209.84941mm"
   height="296.23557mm"
   viewBox="0 0 209.84941 296.23557"
   version="1.1"
   id="svg1"
   inkscape:version="1.3 (0e150ed6c4, 2023-07-21)"
   sodipodi:docname="card-design-2 gold limited edition.svg"
   inkscape:export-filename="card-1.svg"
   inkscape:export-xdpi="96"
   inkscape:export-ydpi="96"
   xmlns:inkscape="http://www.inkscape.org/namespaces/inkscape"
   xmlns:sodipodi="http://sodipodi.sourceforge.net/DTD/sodipodi-0.dtd"
   xmlns:xlink="http://www.w3.org/1999/xlink"
   xmlns="http://www.w3.org/2000/svg"
   xmlns:svg="http://www.w3.org/2000/svg">
  <sodipodi:namedview
     id="namedview1"
     pagecolor="#ffffff"
     bordercolor="#000000"
     borderopacity="0.25"
     inkscape:showpageshadow="2"
     inkscape:pageopacity="0.0"
     inkscape:pagecheckerboard="0"
     inkscape:deskcolor="#d1d1d1"
     inkscape:document-units="px"
     inkscape:zoom="0.70710678"
     inkscape:cx="399.51533"
     inkscape:cy="555.07882"
     inkscape:window-width="1920"
     inkscape:window-height="991"
     inkscape:window-x="-9"
     inkscape:window-y="-9"
     inkscape:window-maximized="1"
     inkscape:current-layer="layer7"
     showguides="false"
     showgrid="false" />
  <defs
     id="defs1">
    <pattern
       inkscape:collect="always"
       xlink:href="#shading6"
       preserveAspectRatio="xMidYMid"
       id="pattern31"
       patternTransform="scale(0.604)"
       x="0"
       y="0" />
    <pattern
       patternUnits="userSpaceOnUse"
       width="372.6899"
       height="66.1838"
       patternTransform="scale(0.2)"
       preserveAspectRatio="xMidYMid"
       id="shading6"
       style="fill:#ffd700"
       inkscape:label="Lines shading small"
       inkscape:collect="always"
       inkscape:isstock="true">
      <path
         id="path34"
         style="stroke-width:0.487199;stroke-linecap:square;paint-order:markers fill stroke;stop-color:#000000"
         d="m 371.6961,0 h 0.9938 v 66.1838 h -0.9938 z m -7.9084,0 h 1.1312 v 66.1838 h -1.1312 z m -7.9085,0 h 1.2687 v 66.1838 h -1.2687 z m -7.9084,0 h 1.4062 v 66.1838 h -1.4062 z m -7.9084,0 h 1.5436 v 66.1838 h -1.5436 z m -7.9084,0 h 1.681 v 66.1838 h -1.681 z m -7.9085,0 h 1.8185 v 66.1838 h -1.8185 z m -7.9084,0 h 1.9559 v 66.1838 h -1.9559 z m -7.9084,0 h 2.0934 v 66.1838 h -2.0934 z m -7.9085,0 h 2.2309 v 66.1838 h -2.2309 z m -7.9084,0 h 2.3683 v 66.1838 h -2.3683 z m -7.9084,0 h 2.5057 v 66.1838 h -2.5057 z m -7.9084,0 h 2.6431 v 66.1838 h -2.6431 z m -7.9085,0 h 2.7807 v 66.1838 h -2.7807 z m -7.9084,0 h 2.9181 v 66.1838 h -2.9181 z m -7.9084,0 h 3.0555 v 66.1838 h -3.0555 z m -7.9084,0 h 3.1929 v 66.1838 h -3.1929 z m -7.9085,0 h 3.3304 v 66.1838 h -3.3304 z m -7.9084,0 h 3.4679 v 66.1838 h -3.4679 z m -7.9084,0 h 3.6053 v 66.1838 h -3.6053 z m -7.9085,0 h 3.7428 v 66.1838 h -3.7428 z m -7.9084,0 h 3.8802 v 66.1838 h -3.8802 z m -7.9084,0 h 4.0176 v 66.1838 h -4.0176 z m -7.9084,0 h 4.1551 v 66.1838 h -4.1551 z m -7.9085,0 h 4.2926 v 66.1838 h -4.2926 z m -7.9084,0 h 4.43 v 66.1838 h -4.43 z m -7.9084,0 h 4.5674 v 66.1838 h -4.5674 z m -7.9084,0 h 4.7048 v 66.1838 h -4.7048 z m -7.9085,0 h 4.8424 v 66.1838 h -4.8424 z m -7.9084,0 h 4.9798 v 66.1838 h -4.9798 z m -7.9084,0 h 5.1172 v 66.1838 h -5.1172 z m -7.9084,0 h 5.2546 v 66.1838 h -5.2546 z m -7.9085,0 h 5.3921 v 66.1838 h -5.3921 z m -7.9084,0 h 5.5295 v 66.1838 h -5.5295 z m -7.9084,0 h 5.667 v 66.1838 h -5.667 z m -7.9085,0 h 5.8045 v 66.1838 h -5.8045 z m -7.9084,0 h 5.9419 v 66.1838 h -5.9419 z m -7.9084,0 h 6.0793 v 66.1838 h -6.0793 z m -7.9084,0 h 6.2167 v 66.1838 h -6.2167 z m -7.9085,0 h 6.3543 V 66.1838 H 63.2674 Z M 55.359,0 h 6.4917 V 66.1838 H 55.359 Z m -7.9084,0 h 6.6291 v 66.1838 h -6.6291 z m -7.9084,0 h 6.7665 v 66.1838 h -6.7665 z m -7.9085,0 h 6.904 v 66.1838 h -6.904 z m -7.9084,0 h 7.0415 v 66.1838 h -7.0415 z m -7.9084,0 h 7.1789 V 66.1838 H 15.8169 Z M 7.9084,0 h 7.3164 V 66.1838 H 7.9084 Z M 0,0 H 7.4538 V 66.1838 H 0 Z" />
    </pattern>
  </defs>
  <g
     inkscape:groupmode="layer"
     id="layer6"
     inkscape:label="border"
     style="fill:#2b2200"
     transform="translate(0,-0.38223939)">
    <rect
       style="fill:#000000;stroke-width:0.264583"
       id="rect1"
       width="209.84941"
       height="296.23553"
       x="0"
       y="0.38223937" />
  </g>
  <g
     inkscape:groupmode="layer"
     id="layer2"
     inkscape:label="background"
     transform="translate(0,-0.38223939)">
    <rect
       style="opacity:0.29;fill:#ffe778;fill-opacity:1;stroke-width:0.263394"
       id="rect3-3"
       width="198.76448"
       height="283.62161"
       x="5.3514624"
       y="7.262548" />
    <rect
       style="opacity:1;fill:url(#pattern31);fill-opacity:1;stroke-width:0.263394"
       id="rect3"
       width="198.76448"
       height="283.62161"
       x="5.3513513"
       y="7.262548" />
    <path
       sodipodi:type="star"
       style="fill:#ffffff;fill-opacity:1;stroke:none;stroke-width:5.0253;stroke-dasharray:none;stroke-opacity:1"
       id="path9"
       inkscape:flatsided="false"
       sodipodi:sides="5"
       sodipodi:cx="172.38995"
       sodipodi:cy="53.895752"
       sodipodi:r1="56.190491"
       sodipodi:r2="28.095245"
       sodipodi:arg1="-0.65030372"
       sodipodi:arg2="-0.021985194"
       inkscape:rounded="0"
       inkscape:randomized="0"
       d="M 217.11196,19.876446 200.47841,53.278122 218.5641,85.916366 181.65716,80.418603 156.20513,107.70489 150.02895,70.905405 116.21304,55.131011 149.30288,37.885445 153.85553,0.85005027 180.48236,26.991185 Z"
       inkscape:transform-center-x="-0.49685382"
       inkscape:transform-center-y="-2.0211449"
       transform="matrix(0.48258187,0.2213082,-0.19892694,0.48319356,102.24275,-21.870015)" />
    <path
       sodipodi:type="star"
       style="fill:#ffffff;fill-opacity:1;stroke:none;stroke-width:1.57876;stroke-dasharray:none;stroke-opacity:1"
       id="path8"
       inkscape:flatsided="false"
       sodipodi:sides="5"
       sodipodi:cx="74.536682"
       sodipodi:cy="80.652504"
       sodipodi:r1="22.86418"
       sodipodi:r2="11.432089"
       sodipodi:arg1="-2.4746844"
       sodipodi:arg2="-1.8463659"
       inkscape:rounded="0"
       inkscape:randomized="0"
       d="M 56.571431,66.509645 71.426067,69.651744 82.435772,59.196151 84.037794,74.294711 97.38384,81.534607 83.519307,87.723933 80.757912,102.65403 70.587138,91.38068 55.534456,93.36809 63.113104,80.211453 Z"
       inkscape:transform-center-x="-2.4935805"
       inkscape:transform-center-y="1.2054428"
       transform="matrix(1.6725272,0.10616428,-0.10616428,1.6725272,-68.092711,-80.464967)" />
    <path
       sodipodi:type="star"
       style="fill:#ffffff;fill-opacity:1;stroke:none;stroke-width:2.12119;stroke-dasharray:none;stroke-opacity:1"
       id="path7"
       inkscape:flatsided="false"
       sodipodi:sides="5"
       sodipodi:cx="103.20463"
       sodipodi:cy="137.22394"
       sodipodi:r1="60.42889"
       sodipodi:r2="30.214445"
       sodipodi:arg1="-2.1535358"
       sodipodi:arg2="-1.5252173"
       inkscape:rounded="0"
       inkscape:randomized="0"
       d="m 69.949803,86.76834 34.631497,20.27253 36.33315,-17.035787 -8.57861,39.201067 27.42956,29.29053 -39.93336,3.95506 -19.38075,35.13833 -16.101571,-36.7567 -39.407523,-7.57385 29.982044,-26.67195 z"
       inkscape:transform-center-x="5.8942774"
       inkscape:transform-center-y="1.3238695"
       transform="matrix(1.2225664,0.26141274,-0.26021414,1.2169609,44.298209,-30.412414)" />
    <path
       sodipodi:type="star"
       style="fill:#ffffff;fill-opacity:1;stroke:none;stroke-width:4.49531;stroke-dasharray:none;stroke-opacity:1"
       id="path10"
       inkscape:flatsided="false"
       sodipodi:sides="5"
       sodipodi:cx="29.050196"
       sodipodi:cy="162.45174"
       sodipodi:r1="36.288589"
       sodipodi:r2="18.144297"
       sodipodi:arg1="1.158989"
       sodipodi:arg2="1.7873076"
       inkscape:rounded="0"
       inkscape:randomized="0"
       d="m 43.575292,195.70656 -18.422921,-15.53414 -23.2408906,6.36981 9.0808536,-22.32155 -13.239883,-20.13502 24.035197,1.73866 15.058193,-18.81394 5.773715,23.39611 22.546358,8.50736 -20.466845,12.72093 z"
       inkscape:transform-center-x="-1.5348026"
       inkscape:transform-center-y="-0.59444887"
       transform="matrix(0.63711521,0,0,0.54373547,10.65158,83.560371)" />
    <path
       sodipodi:type="star"
       style="fill:#ffffff;fill-opacity:1;stroke:none;stroke-width:2.64583;stroke-dasharray:none;stroke-opacity:1"
       id="path11"
       inkscape:flatsided="false"
       sodipodi:sides="5"
       sodipodi:cx="40.899616"
       sodipodi:cy="280.56372"
       sodipodi:r1="22.288195"
       sodipodi:r2="11.144099"
       sodipodi:arg1="-1.0303768"
       sodipodi:arg2="-0.4020583"
       inkscape:rounded="0"
       inkscape:randomized="0"
       d="m 52.366798,261.45175 -1.211741,14.75114 11.464676,9.36085 -14.403611,3.40591 -5.359917,13.79622 -7.69018,-12.64616 -14.777287,-0.83432 9.650818,-11.22168 -3.772948,-14.31185 13.654714,5.71078 z"
       inkscape:transform-center-x="-0.60461859"
       inkscape:transform-center-y="1.5450851"
       transform="translate(12.6139,-17.965251)" />
  </g>
</svg>
