<svg width="90" height="90" viewBox="0 0 90 90" fill="none" xmlns="http://www.w3.org/2000/svg">
<g clip-path="url(#clip0_12_15)">
<path d="M29.0001 74.76C42.1224 74.76 52.7601 64.1223 52.7601 51C52.7601 37.8777 42.1224 27.24 29.0001 27.24C15.8778 27.24 5.24011 37.8777 5.24011 51C5.24011 64.1223 15.8778 74.76 29.0001 74.76Z" stroke="white" stroke-width="2.4"/>
<path d="M12.5701 33.84L14.1201 35.42M8.62012 59.06C10.9301 61.37 14.0001 61.01 16.8801 61.08M11.6401 40.68C6.73012 44.19 5.54012 51.32 5.72012 51.28M17.8801 41.2C17.3701 44.93 18.7201 49.03 21.5201 53.4M20.4501 30.51C22.0201 28.94 25.1101 27.84 29.1801 27.22M23.9001 68.34C23.4001 69.66 23.5301 71.49 23.8201 73.44M24.4401 34.61C27.2601 34.93 32.3601 35.35 36.4001 37.64M32.3601 64.08C35.4601 65.81 38.8501 66.55 42.9601 65.88M39.5601 45.8C37.1401 49.14 34.2201 52.25 30.8401 55.16M41.9301 33.97C40.8201 31.9 38.9701 30.22 36.9401 28.63M48.4001 41.44C49.4001 41.47 50.3701 41.88 51.3001 42.85M46.9201 47.8C48.5001 50.77 48.7301 54.98 48.9601 59.2" stroke="white" stroke-width="2.4"/>
<path d="M12.7601 34C15.1901 32.47 17.7401 30.97 21.3201 29.76C22.7301 30.93 23.8501 32.83 25.0401 34.68C22.1601 37.43 19.4201 40.12 17.8001 42.24C15.0601 41.99 13.7001 42.22 10.4001 41.64C10.4301 39.2 11.2401 36.65 12.7601 34ZM41.8001 33.6C44.5101 36.08 47.1701 38.58 49.0401 41.48C48.4901 44.1 47.9901 47.01 47.2401 48.52C44.9001 48.17 41.8801 47.27 39.0401 46.52C37.6601 42.95 36.7301 40.27 35.6401 37.28C37.7401 35.72 39.8101 34.32 41.8001 33.6ZM9.07014 63.93C6.39814 59.7938 5.07725 54.9296 5.29014 50.01L5.88014 49.94C6.42014 53.36 7.12014 56.68 8.99014 59.22C8.63014 61.01 8.97014 62.45 9.50014 63.8L9.07014 63.93ZM21.0401 52.68C24.6901 53.28 28.2101 53.88 31.6401 54.48C32.7001 57.81 32.8401 61.15 33.2001 64.48C30.5701 66.66 26.9501 67.35 23.7601 68.68C20.0401 66.28 18.5301 63.6 16.4001 61C17.6201 58.19 18.9701 55.39 21.0401 52.68ZM51.1701 59.46C49.3802 64.167 46.1411 68.1835 41.9201 70.93L40.7601 70.88C41.6001 69.61 41.9001 67.91 41.9401 66C44.2601 64.89 46.5801 61.37 48.9001 58.28C49.7601 58.58 50.4901 59 51.1701 59.46ZM28.3001 74.73C24.847 74.6252 21.4583 73.7686 18.3701 72.22C20.3601 72.96 22.0401 73.65 23.7901 73.05C24.3201 73.8 25.5501 74.39 28.3001 74.73Z" fill="white"/>
</g>
<path d="M89.6658 24.334C89.1041 22.6741 87.8968 21.3224 86.2675 20.528L45.6704 0.720849C44.0408 -0.0735152 42.1828 -0.216619 40.4392 0.317735C38.6952 0.852584 37.2749 2.00137 36.4401 3.55228L36.4146 3.59974L32.9153 2.47789C29.3303 1.32886 25.4311 3.1687 24.2241 6.57996L23.858 7.61704L18.409 6.83651C16.5969 6.57749 14.7879 7.00433 13.3139 8.03943C11.8394 9.07477 10.8775 10.5945 10.6051 12.3185L10.5929 12.3961H6.85859C3.07677 12.3961 0 15.3244 0 18.9237V83.4721C0 87.0715 3.07677 89.9998 6.85859 89.9998H52.477C55.2845 89.9998 57.7032 88.3859 58.7633 86.0816C58.8451 85.9034 89.2427 29.3128 89.2427 29.3128C90.0774 27.7618 90.2277 25.9934 89.6658 24.334ZM66.3451 17.0483C67.1036 18.0258 67.4168 19.226 67.227 20.4277L59.3351 70.33V18.9237C59.3351 17.1815 58.6129 15.598 57.4402 14.4262L63.2099 15.2525C64.473 15.4334 65.5863 16.0711 66.3451 17.0483ZM69.2814 20.7221C69.554 18.9979 69.1045 17.2759 68.0162 15.8736C67.9964 15.8481 67.9754 15.8241 67.9554 15.7989L75.4824 18.2124C76.6926 18.6002 77.6713 19.4134 78.2385 20.5021C78.8056 21.5908 78.8934 22.8246 78.4857 23.9769L60.9174 73.6093L69.2814 20.7221ZM41.0762 2.19959C42.2921 1.82688 43.5869 1.92673 44.7228 2.48036L67.3394 13.515L38.417 4.24185C39.0102 3.27003 39.9427 2.54734 41.0762 2.19959ZM26.1931 7.21021C27.0339 4.83281 29.7529 3.55031 32.2521 4.35159L57.4347 12.4257L25.944 7.91585L26.1931 7.21021ZM14.5471 9.63063C15.5747 8.90917 16.8365 8.6111 18.0994 8.79202L43.2651 12.3963H12.7049C12.9379 11.2849 13.5824 10.3081 14.5471 9.63063ZM52.4768 88.0225H6.85833C4.22199 88.0225 2.07724 85.9813 2.07724 83.4721V18.9237C2.07724 16.4146 4.22199 14.3733 6.85833 14.3733H52.4768C55.1131 14.3733 57.2579 16.4146 57.2579 18.9237V83.4721C57.2579 83.8429 57.2075 84.2022 57.1184 84.547C57.1057 84.5964 57.054 84.7769 57.0486 84.7939C56.4515 86.66 54.6298 88.0225 52.4768 88.0225ZM87.3935 28.4111L63.2242 73.286L80.4547 24.6079C81.02 23.0093 80.9187 21.3014 80.175 19.7777L85.3199 22.2878C86.4555 22.8414 87.2966 23.7836 87.6882 24.9403C88.0801 26.0975 87.9752 27.3301 87.3935 28.4111Z" fill="white"/>
<defs>
<clipPath id="clip0_12_15">
<rect width="50" height="50" fill="white" transform="translate(4.00012 26)"/>
</clipPath>
</defs>
</svg>
